<svg version="1.2" baseProfile="tiny-ps" xmlns="http://www.w3.org/2000/svg" viewBox="0 0 1583 345" width="1583" height="345">
	<title>logo-logo-ozon-blue-svg</title>
	<style>
		tspan { white-space:pre }
		.shp0 { fill: #005bff } 
	</style>
	<path id="Layer" fill-rule="evenodd" class="shp0" d="M190.21 0.87C270.99 8.86 336.32 74.12 344.32 154.81C355.13 263.83 264.15 354.71 154.99 343.91C74.21 335.92 8.87 270.67 0.88 189.98C-9.94 80.95 81.05 -9.92 190.21 0.87ZM184.6 263.58C225.59 258.38 258.68 225.32 263.9 184.38C271.54 124.32 220.74 73.57 160.6 81.21C119.61 86.41 86.51 119.47 81.3 160.41C73.66 220.47 124.46 271.22 184.6 263.58ZM689.6 7.69C699.19 7.69 704.65 18.66 698.85 26.29L524.06 256.63L661.01 256.63C685.97 256.63 705.63 279.31 700.45 305.17C696.65 324.12 678.85 337.07 659.49 337.07L385.1 337.07C375.6 337.07 370.19 326.21 375.93 318.64L550.86 88.14L438.45 88.14C419.1 88.14 401.3 75.19 397.5 56.23C392.32 30.38 411.98 7.69 436.94 7.69L689.6 7.69ZM1533.41 8.61C1559.47 3.13 1582.43 22.84 1582.43 47.91L1582.43 325.47C1582.43 335.15 1571.23 340.56 1563.63 334.54L1345.67 161.83L1345.67 296.92C1345.67 321.99 1322.72 341.7 1296.65 336.22C1277.96 332.29 1265.14 314.92 1265.14 295.85L1265.14 19.29C1265.14 9.61 1276.33 4.2 1283.93 10.22L1501.89 182.94L1501.89 48.98C1501.89 29.91 1514.72 12.54 1533.41 8.61ZM965.9 0C1099.34 0 1207.52 77.16 1207.52 172.35C1207.52 267.53 1099.34 344.69 965.9 344.69C832.46 344.69 724.29 267.53 724.29 172.35C724.29 77.16 832.46 0 965.9 0ZM804.83 172.35C804.83 215.73 873.71 264.25 965.9 264.25C1058.09 264.25 1126.97 215.73 1126.97 172.35C1126.97 128.97 1058.09 80.44 965.9 80.44C873.71 80.44 804.83 128.96 804.83 172.35Z" />
</svg>