<svg id="Layer_1" data-name="Layer 1" xmlns="http://www.w3.org/2000/svg" viewBox="0 0 1000 116.67"><defs><style>.cls-1{fill:#be11a5;}</style></defs><title>wildberries-logo</title><path class="cls-1" d="M30.52,556.2,0,443.68H20L43.47,530.1l25.14-86.43H87.27l25.22,86.88,23.56-86.86,20,0L125.54,556.18l-23.21,0L78,472.13l-24.41,84Z" transform="translate(0 -441.67)"/><path class="cls-1" d="M169.88,443.74h19.06V556.13H169.88Z" transform="translate(0 -441.67)"/><path class="cls-1" d="M229.69,538.5h46.39v17.63H211V443.74h18.67Z" transform="translate(0 -441.67)"/><path class="cls-1" d="M334.71,443.87c15.64,0,28.65,5.44,38.91,16.2s15.64,24.11,15.64,39.93-5.26,29-15.64,39.93-23.27,16.2-38.91,16.2H289.89V443.74h44.82Zm0,94.76c10.78,0,19.58-3.63,26.16-10.89,6.83-7.26,10.25-16.59,10.25-27.61,0-11.28-3.42-20.35-10.25-27.61s-15.51-10.89-26.16-10.89h-26v77Z" transform="translate(0 -441.67)"/><path class="cls-1" d="M489.81,524a29.65,29.65,0,0,1-10,23,34.52,34.52,0,0,1-24.32,9.21H406.74V443.74H452a34.08,34.08,0,0,1,23.66,8.95,28.61,28.61,0,0,1,9.73,22.18c0,9.85-3.94,17.38-11.56,22.95C483.76,503,489.81,512.35,489.81,524Zm-64.28-62.9v29.57h26.55a14.79,14.79,0,0,0,0-29.57Zm30.1,77.69a15.7,15.7,0,0,0,0-31.39h-30.1v31.52h30.1Z" transform="translate(0 -441.67)"/><path class="cls-1" d="M526.22,538.55h50.47v17.64H507.55V443.74H575.9v17.64H526.22v29.18h45.61v17.51H526.22Z" transform="translate(0 -441.67)"/><path class="cls-1" d="M658.45,556.19l-24.19-41H612.18v41H593.52V443.74h45.61c10.25,0,18.92,3.5,25.89,10.64a34.31,34.31,0,0,1,10.78,25.55,35.19,35.19,0,0,1-22.61,32.55l25.89,43.71Zm-46.27-95.07v37.61H639c10,0,17.87-8.3,17.87-18.8s-8-18.81-17.87-18.81Z" transform="translate(0 -441.67)"/><path class="cls-1" d="M758.21,556.19l-24.05-41H712.08v41H693.41V443.68H739c10.26,0,18.93,3.51,25.9,10.64a34.39,34.39,0,0,1,10.78,25.57,35.2,35.2,0,0,1-22.61,32.57L779,556.19Zm-46.13-95.12V498.7h26.81c10,0,17.88-8.3,17.88-18.81s-8-18.82-17.88-18.82Z" transform="translate(0 -441.67)"/><path class="cls-1" d="M792.65,443.69h18.67v112.5H792.65Z" transform="translate(0 -441.67)"/><path class="cls-1" d="M852.06,538.55h50.48v17.64H833.4V443.74h68.35v17.64H852.06v29.18h45.61v17.51H852.06Z" transform="translate(0 -441.67)"/><path class="cls-1" d="M915.55,530.59l16.17-9.33c4.6,12.7,13.93,18.93,28.26,18.93s21.16-6,21.16-14.78A11.5,11.5,0,0,0,975.49,515c-3.68-2.47-10.52-5.19-20.24-8-10.92-3.24-16.3-5.31-23.93-10.24-7.36-5.19-11-12.58-11-22.69s3.55-17.76,10.78-23.59,15.77-8.81,25.9-8.81c18.27,0,32.33,9.33,39.69,24.76l-15.77,8.94C976.14,465,968.13,459.68,957,459.68c-10.92,0-17.88,5.45-17.88,14,0,8.3,5.52,12.19,23,17.5,4.34,1.43,7.49,2.47,9.46,3.25s4.87,1.81,8.42,3.24a31,31,0,0,1,8.28,4.53c6,4.67,12.48,12.32,11.69,23.08,0,10.11-3.67,18.28-11.17,24.24s-17.08,8.81-29.18,8.81C937.5,558.2,921.46,547.83,915.55,530.59Z" transform="translate(0 -441.67)"/></svg>